<svg xmlns="http://www.w3.org/2000/svg" viewBox="0 0 569.14 154"><defs><style>.cls-1,.cls-10{fill:transparent;}.cls-1{stroke:#265a41;stroke-miterlimit:10;}.cls-2{fill:#265a41;}.cls-3{font-size:18px;fill:#265a41;font-family:Poppins-SemiBold, Poppins;font-weight:600;letter-spacing:0.03em;}.cls-4{fill:#265a41;}.cls-5{fill:#265a41;}.cls-6{fill:#265a41;}.cls-7{fill:#265a41;}.cls-8{fill:#265a41;}.cls-9{fill:#265a41;}.cls-11{fill:#265a41;}.cls-12{fill:#265a41;}.cls-13{letter-spacing:0.02em;}</style></defs><g id="Layer_2" data-name="Layer 2"><g id="Layer_1-2" data-name="Layer 1"><circle class="cls-1" cx="49.5" cy="49.5" r="49"/><path class="cls-2" d="M85.5,44.27a4,4,0,0,0-3.85-4.2H68.51l5.56-18a7.1,7.1,0,0,0-.31-5,6.22,6.22,0,0,0-3.49-3.33,6,6,0,0,0-7.67,4.15L55.74,40.06H17.35a4,4,0,0,0-3.85,4.2,4.13,4.13,0,0,0,3,4.1c.53,13.34,7.78,25.3,18.86,31v4.28a1.59,1.59,0,0,0,1.51,1.65H62.11a1.58,1.58,0,0,0,1.51-1.65V79.39C74.7,73.66,82,61.7,82.48,48.36A4.11,4.11,0,0,0,85.5,44.27Zm-20-25.37a3,3,0,0,1,3.84-2.08,3,3,0,0,1,1.74,1.66A3.62,3.62,0,0,1,71.21,21L65.32,40.07H58.93ZM17.35,43.38H81.66a.89.89,0,0,1,0,1.78H17.35a.89.89,0,0,1,0-1.78ZM38.41,82V80H60.59v2Zm23.37-5.34H37.22c-10.3-5.06-17.09-16-17.66-28.21H79.44C78.88,60.71,72.08,71.63,61.78,76.69Z"/><text class="cls-3" transform="translate(2.95 121.72)">Authentic<tspan x="0.35" y="21.6">Ayurveda</tspan></text><circle class="cls-1" cx="205.1" cy="49.5" r="49"/><g id="Layer_2-2" data-name="Layer 2"><g id="Layer_1-2-2" data-name="Layer 1-2"><path class="cls-4" d="M174,73c2-4.92,5.16-9.19,7.71-13.79,1.59-2.87,3.33-5.66,5-8.5a2,2,0,0,0,.26-1q0-7.68,0-15.39c0-1.42.4-1.82,1.84-1.82h5.51A1.69,1.69,0,0,1,196,34.2v4.14l2.59-1V20.12c0-1.62.51-1.89,2.5-1.79a70.26,70.26,0,0,0,7.11,0c1.39-.07,1.93.38,1.93,1.67V36.93A22,22,0,0,1,222,44.48l-2,1.58c-.47-.51-.9-1-1.36-1.46a19.4,19.4,0,0,0-9.74-5.32c-1-.24-1.36-.63-1.36-1.72V20.85h-6.38v.63q0,8.2,0,16.42c0,1.1-.29,1.43-1.34,1.78s-2.25.85-3.38,1.28a.67.67,0,0,0-.48.73c0,2.68,0,5.37,0,8.06a1.35,1.35,0,0,0,.18.67q5.61,8.73,11.25,17.42a1.88,1.88,0,0,1,.14.24v-.74c.06-4.59.06-9.17.06-13.76a5.57,5.57,0,0,1,1-3.51A5.25,5.25,0,0,1,213,48h19.69a3.12,3.12,0,0,1,3.11,2,3.07,3.07,0,0,1-.84,3.53c-.8.8-1.59,1.61-2.41,2.39a1.15,1.15,0,0,0-.4.94q0,8.46,0,16.91a6.48,6.48,0,0,1-5,6.41,3.75,3.75,0,0,0-.6.24H212.92s-.06-.11-.11-.12A6.49,6.49,0,0,1,209.1,78c-.9.63-1.73,1.27-2.63,1.81a10,10,0,0,1-1.67.57H179.19a2.4,2.4,0,0,0-.39-.2,6.26,6.26,0,0,1-4.09-3.28c-.29-.56-.49-1.16-.73-1.73Zm15.49-37.87v.64c0,4.69,0,9.37,0,14.06a3.63,3.63,0,0,1-.56,2q-5.87,9.91-11.7,19.88a3.79,3.79,0,0,0,3.28,6c7.71,0,15.42,0,23.14,0A3.92,3.92,0,0,0,206.1,77a3.71,3.71,0,0,0,.76-5.17l-13-20.17a3,3,0,0,1-.45-1.52q0-7.17,0-14.35v-.63Zm20.73,28.49v9.2a7.78,7.78,0,0,0,.11,1.87,3.86,3.86,0,0,0,4,3c3.67,0,7.35,0,11,0a4.82,4.82,0,0,0,2-.42,3.84,3.84,0,0,0,2.21-3.84c0-5.73,0-11.46,0-17.2a2.29,2.29,0,0,1,.76-1.82c1-.88,1.85-1.81,2.73-2.74.18-.19.39-.61.3-.74s-.5-.27-.77-.37h-.18c-6.4,0-12.81,0-19.21,0a2.82,2.82,0,0,0-3,3C210.24,56.91,210.19,60.26,210.19,63.61Z"/><path class="cls-4" d="M174,32.17c.21-.43.38-.87.61-1.27A4.49,4.49,0,0,1,183,32.6a4.5,4.5,0,0,1-8.77,1.85A3.29,3.29,0,0,0,174,34Zm4.51-1a1.94,1.94,0,0,0-1.93,1.92,2,2,0,0,0,1.92,1.95,1.93,1.93,0,0,0,1.94-1.92v-.05a1.92,1.92,0,0,0-1.92-1.9Z"/><path class="cls-4" d="M228.91,45.38a4.53,4.53,0,0,1,0-9.05,4.53,4.53,0,1,1,0,9.05Zm0-6.44a1.93,1.93,0,0,0-2,1.89,2,2,0,0,0,1.94,2,1.94,1.94,0,0,0,1.92-1.93A1.91,1.91,0,0,0,229,38.94Z"/><path class="cls-4" d="M224.4,27.31a3.87,3.87,0,0,1,0,7.74h0a3.87,3.87,0,0,1,0-7.74Zm0,5.13a1.28,1.28,0,1,0,0-2.56,1.36,1.36,0,0,0-1.29,1.28A1.3,1.3,0,0,0,224.37,32.44Z"/><path class="cls-4" d="M188.18,23.41a3.88,3.88,0,1,1-3.77-3.78,3.9,3.9,0,0,1,3.77,3.78Zm-3.86,1.28a1.32,1.32,0,0,0,1.29-1.27,1.34,1.34,0,0,0-1.26-1.3,1.31,1.31,0,0,0-1.3,1.3h0a1.27,1.27,0,0,0,1.27,1.27Z"/><path class="cls-5" d="M180.5,50.6V48h2.58V50.6Z"/><path class="cls-5" d="M202.37,50.6h-2.58V48h2.58Z"/><path class="cls-6" d="M179.14,44.07h-2.57V41.5h2.57Z"/><path class="cls-7" d="M198.56,42.85h2.58v2.58h-2.58Z"/><path class="cls-7" d="M204.94,55.77h-2.57V53.19h2.57Z"/><path class="cls-8" d="M192.58,55.9l-9.74,16.55h6.62V75h-2.88c-1.92,0-3.85,0-5.77,0-1.32,0-1.89-1-1.24-2.1l10.61-18,.19-.29Z"/><path class="cls-5" d="M199.78,71.25h2.58v2.58h-2.58Z"/><path class="cls-6" d="M196,68.66V66.09h2.57v2.57Z"/><path class="cls-9" d="M220.58,75.12V72.61h3.79V55.77H227V73.34c0,1.42-.38,1.8-1.76,1.8h-4.61Z"/><path class="cls-6" d="M212.83,55.77h3.8v2.57h-3.8Z"/><path class="cls-7" d="M212.83,66.09h3.8v2.57h-3.8Z"/><path class="cls-6" d="M212.69,73.83V71.25h2.58v2.58Z"/><path class="cls-7" d="M212.83,60.93h2.58V63.5h-2.58Z"/></g></g><text class="cls-3" transform="translate(143.7 121.72)">Scientifically<tspan x="29.48" y="21.6">Tested</tspan></text><circle class="cls-1" cx="365.79" cy="49.5" r="49"/><g id="Layer_2-3" data-name="Layer 2"><g id="Layer_1-2-3" data-name="Layer 1-2"><path class="cls-4" d="M349.74,85.34l-.71-.1a6.3,6.3,0,0,1-.84-1.43c-.68-2.2-1.29-4.43-1.93-6.66,0-.13-.09-.25-.15-.4l-8.3,1a1.55,1.55,0,0,0-.21,0,1.36,1.36,0,0,1-1.53-.58,1.33,1.33,0,0,1,.25-1.61l3.45-4.42,3.92-5a11.5,11.5,0,0,1-4.52-2.68,7.23,7.23,0,0,1-2.45-5.82,38.6,38.6,0,0,1,.88-6.51,24,24,0,0,0-.06-11.37,31.9,31.9,0,0,1-.82-5.67c-.22-3.89,1.71-6.63,5.17-8.18,2.25-1,4.62-1.75,7-2.54a19.12,19.12,0,0,0,6.73-4.17,44.64,44.64,0,0,1,5.32-4.32c3.43-2.25,6.93-1.91,10.21.43a39.77,39.77,0,0,1,4.45,3.75,19.71,19.71,0,0,0,8.21,4.76,28,28,0,0,1,6.63,2.6,7.76,7.76,0,0,1,4.18,7.33,33.24,33.24,0,0,1-.88,6.36,23.64,23.64,0,0,0,.08,11.37,33.05,33.05,0,0,1,.82,5.32c.31,4.22-1.89,7-5.5,8.76-.44.22-.9.37-1.45.58l.43.6,6.85,8.8a1.36,1.36,0,0,1,.39,1.4,1.26,1.26,0,0,1-1.5.85l-7.1-.89-1.58-.19q-.75,2.64-1.5,5.25a16.3,16.3,0,0,1-.53,1.81,10.78,10.78,0,0,1-.85,1.43l-1,0-8.39-10.62a9.84,9.84,0,0,1-14.43,0c-2.52,3.24-5,6.44-7.5,9.61A7.59,7.59,0,0,1,349.74,85.34Zm16.1-9.93a5.2,5.2,0,0,0,3.11-1q2.66-2,5.15-4.21a21.07,21.07,0,0,1,7.39-4.57c2.19-.73,4.4-1.42,6.52-2.33,3.28-1.39,4.48-3.55,4.08-7.07a46.45,46.45,0,0,0-.82-4.69,23.47,23.47,0,0,1-.35-10c.46-2.22.89-4.44,1.2-6.68a5.68,5.68,0,0,0-3.32-6.42,37.91,37.91,0,0,0-5.74-2.19,22.06,22.06,0,0,1-9.22-5.38,39.69,39.69,0,0,0-3.95-3.37c-2.86-2.11-5.6-2.12-8.45,0-1.51,1.13-2.91,2.42-4.31,3.69a20.32,20.32,0,0,1-7.21,4.47c-2.25.76-4.53,1.46-6.71,2.4-3.18,1.36-4.39,3.57-4,7a43.8,43.8,0,0,0,.82,4.69,23.44,23.44,0,0,1,.35,10.07c-.45,2.19-.88,4.39-1.19,6.61a5.7,5.7,0,0,0,3.35,6.47,50.33,50.33,0,0,0,6.14,2.32,20.87,20.87,0,0,1,7.56,4.14c1.69,1.51,3.38,3,5.15,4.44A6.59,6.59,0,0,0,365.84,75.41ZM340,75h.43c2.09-.25,4.18-.52,6.27-.75.94-.1,1.32.19,1.6,1.09.12.4.23.81.34,1.21.45,1.58.91,3.17,1.4,4.87l6.47-8.31a19,19,0,0,0-10.39-6c-2,2.56-4,5.16-6.12,7.86Zm45.16-7.87a18.85,18.85,0,0,0-10.4,6l6.46,8.29c.08-.23.12-.33.15-.44.52-1.84,1-3.67,1.57-5.51.29-1,.68-1.28,1.66-1.2.65,0,1.3.15,1.94.23l4.78.58Z"/><path class="cls-10" d="M365.84,75.41a6.83,6.83,0,0,1-4.45-1.58c-1.77-1.42-3.46-2.93-5.15-4.44a20.87,20.87,0,0,0-7.56-4.14,48.74,48.74,0,0,1-6.14-2.32,5.71,5.71,0,0,1-3.35-6.48c.31-2.22.74-4.42,1.19-6.61A23.44,23.44,0,0,0,340,39.77c-.35-1.55-.62-3.11-.82-4.69-.41-3.42.79-5.63,4-7,2.18-.93,4.46-1.64,6.71-2.4a20.32,20.32,0,0,0,7.21-4.47,52.11,52.11,0,0,1,4.31-3.69c2.85-2.12,5.59-2.11,8.45,0a37.16,37.16,0,0,1,3.94,3.36A22.17,22.17,0,0,0,383,26.28a36.88,36.88,0,0,1,5.74,2.19,5.67,5.67,0,0,1,3.32,6.42c-.31,2.24-.74,4.46-1.2,6.68a23.48,23.48,0,0,0,.35,10,43.8,43.8,0,0,1,.82,4.69c.41,3.52-.79,5.68-4.08,7.07-2.12.9-4.33,1.59-6.52,2.33a21.07,21.07,0,0,0-7.39,4.57c-1.65,1.48-3.37,2.87-5.15,4.21A5.1,5.1,0,0,1,365.84,75.41ZM388,45.68A22.33,22.33,0,1,0,365.66,68,22.38,22.38,0,0,0,388,45.68Z"/><path class="cls-4" d="M388,45.68a22.33,22.33,0,1,1-22.36-22.27A22.36,22.36,0,0,1,388,45.68ZM365.66,65.52a19.83,19.83,0,1,0-19.84-19.78A19.9,19.9,0,0,0,365.66,65.52Z"/><path class="cls-11" d="M357,39.48c1.12,0,2.25,0,3.37,0a.7.7,0,0,0,.83-.58q1-3.27,2.11-6.52a2.48,2.48,0,0,1,3.36-1.61,2.6,2.6,0,0,1,1.45,1.7c.69,2.16,1.41,4.3,2.09,6.45a.68.68,0,0,0,.78.57c2.25,0,4.49,0,6.74,0a2.49,2.49,0,0,1,2.73,2.74,2.54,2.54,0,0,1-1.19,1.89c-1.84,1.33-3.66,2.68-5.51,4a.64.64,0,0,0-.28.86q1.06,3.23,2.1,6.45a2.47,2.47,0,0,1-2,3.46,2.75,2.75,0,0,1-2-.67c-1.76-1.28-3.53-2.54-5.27-3.84a.79.79,0,0,0-1.14,0c-1.81,1.36-3.64,2.7-5.5,4a2.45,2.45,0,0,1-4-1.61,3.16,3.16,0,0,1,.18-1.36q1-3.21,2.07-6.39a.67.67,0,0,0-.29-.92c-1.87-1.32-3.71-2.68-5.57-4a2.46,2.46,0,0,1-1.09-2.49,2.28,2.28,0,0,1,1.57-1.9,4,4,0,0,1,1.24-.19C354.79,39.46,355.87,39.48,357,39.48Zm1.1,16.9c.31-.19.48-.31.65-.43l6-4.33a1.35,1.35,0,0,1,1.91,0c.46.32.91.66,1.36,1l5.24,3.79c-.1-.41-.14-.68-.23-.94l-2.13-6.58c-.37-1.15-.29-1.44.68-2.13l6-4.33a5.4,5.4,0,0,0,.44-.39h-8.08c-1,0-1.32-.24-1.63-1.19-.62-1.88-1.23-3.77-1.84-5.65l-.69-2-2.49,7.62c-.35,1.08-.62,1.27-1.78,1.27H354c-.16,0-.32,0-.58,0l6.45,4.69c.9.65,1,1,.67,2Z"/></g></g><text class="cls-3" transform="translate(340.38 121.72)"><tspan x="5" y="0">GMP</tspan><tspan x="-14.01" y="21.6">Certified</tspan></text><circle class="cls-1" cx="519.64" cy="49.91" r="49"/><path class="cls-12" d="M529.55,34.23l4.77-1.81c.62,1.39,1.26,2.78,1.62,3.57-5,3.57-9.66,6.86-14.27,10.14.14.42.27.85.41,1.27,6.72,2,12.42,5.3,14,11.91a20.47,20.47,0,0,1-.37,10.79c-2.4,7.29-10.77,11.66-18.8,10.67s-14.65-7.19-15.57-14.68c-1.05-8.55,4.19-15.1,15.21-18.65.67-10.36-7.94-13.36-15.85-17.07l1.49-4.63,11.42,5.47c-.2-7.37-9.75-9.87-19.5-4.56,1.63,2.85,2.92,6,5,8.52,1.18,1.42,4.13,3,5.57,2.52,3.52-1.12,4.48.85,6,2.67-5.1,3.45-10.92,3.47-14.41-1-3.28-4.17-5.32-9.19-7.71-13.92a2.65,2.65,0,0,1,.95-2.55c5.95-3,12.12-5.19,19.09-3.37,7.64,2,11.12,7.35,10.12,14.65-.26,1.92,1.09,4,1.7,6.06l1.31.17c.84-1.58,2.29-3.13,2.41-4.75.48-6.75,5.51-11.16,12.76-10,4.62.75,9,2.66,13.57,4.07C545.34,42,536.45,49.18,529.7,42.6c4.94-2.68,11.74-3.22,13-9.74C537,29.39,532.27,29.68,529.55,34.23Zm2.37,30c0-6.47-5.66-11.88-12.59-12s-12.79,5.18-12.94,11.64c-.14,6.62,5.71,12.18,12.81,12.16C526.11,76.08,531.88,70.71,531.92,64.26Z"/><path class="cls-7" d="M521.58,71.45H516.8c-.09-1.26-.19-2.66-.32-4.43l-4.82-.31c-.07-1.3-.15-2.68-.25-4.43l5-.31c.09-1.3.2-2.69.33-4.5l4.76-.22c.11,1.49.2,2.88.34,4.65l4.82.31c.07,1.3.15,2.68.24,4.44l-5,.3C521.81,68.24,521.7,69.64,521.58,71.45Z"/><text class="cls-3" transform="translate(483.89 121.72)">Natural<tspan class="cls-13"><tspan x="-6.36" y="21.6">and Safe</tspan></tspan></text></g></g></svg>